<svg xmlns="http://www.w3.org/2000/svg" width="100" height="40" fill="none" viewBox="0 0 100 40">
  <g clip-path="url(#a)">
    <path fill="#000"
      d="m7.856 4.122 2.338 6.415H5.509l2.347-6.415ZM6.6.096l-.078.222L0 18.127h2.73l1.905-5.22h6.423l1.915 5.22h2.74L9.093.097H6.6ZM22.037 9.39l3.24.964a2.951 2.951 0 0 1 1.444.915c.366.444.56 1 .55 1.57a2.95 2.95 0 0 1-.948 2.076 3.068 3.068 0 0 1-2.165.813 3.15 3.15 0 0 1-1.697-.461 3.074 3.074 0 0 1-1.17-1.292l-.138-.279-.295.125-2.052.877.137.298c.392.812.975 1.52 1.7 2.068a5.84 5.84 0 0 0 2.474 1.082c.9.164 1.827.116 2.705-.14a5.812 5.812 0 0 0 2.343-1.334 5.287 5.287 0 0 0 1.24-1.757 5.199 5.199 0 0 0 .429-2.095 5.068 5.068 0 0 0-1.032-3.052 5.234 5.234 0 0 0-2.68-1.85l-3.064-.964c-.49-.11-.93-.376-1.248-.758a2.19 2.19 0 0 1-.51-1.351c.003-.33.077-.654.218-.953.14-.299.344-.565.597-.781a3.09 3.09 0 0 1 2.043-.732 2.993 2.993 0 0 1 1.535.36c.47.254.859.63 1.126 1.085l.138.26 2.288-.963-.138-.299A5.284 5.284 0 0 0 27.051.706 5.425 5.425 0 0 0 24.158 0a5.61 5.61 0 0 0-3.928 1.454c-.487.45-.875.994-1.14 1.597a4.737 4.737 0 0 0-.402 1.91c.002.984.323 1.942.916 2.737a4.74 4.74 0 0 0 2.384 1.683M45.095.096v7.706h-8.131V.096H34.4v18.03h2.563v-7.705h8.13v7.706h2.564V.097h-2.563Zm7.905 0v18.031h13.228v-2.495H55.553V.096H53Zm17.166 0v18.03h13.267v-2.369H72.73v-5.46h8.79v-2.37h-8.79V2.475h10.704V.096H70.166Zm26.8 0L93.037 6.02 89.12.096h-3.044l5.696 8.63v9.4h2.563V8.708L100 .097h-3.034ZM5.42 24.811a2.108 2.108 0 0 1 3.044 0c.415.43.643.999.64 1.59a2.154 2.154 0 0 1-.62 1.546 2.24 2.24 0 0 1-1.55.669H5.891l-.57-.684a2.321 2.321 0 0 1-.538-1.56 2.327 2.327 0 0 1 .637-1.523v-.038Zm-.51 6.51L9.231 36.6a6.203 6.203 0 0 1-2.73.684 3.978 3.978 0 0 1-2.455-.828 2.842 2.842 0 0 1-.826-1.02 2.786 2.786 0 0 1-.274-1.273 3.04 3.04 0 0 1 .528-1.742 3.13 3.13 0 0 1 1.436-1.147v.048Zm9.948 1.109v-.318h-2.593v.318a3.943 3.943 0 0 1-.982 2.523l-3.496-4.065a5.137 5.137 0 0 0 2.544-1.348 4.43 4.43 0 0 0 .985-1.435 4.34 4.34 0 0 0 .35-1.695 4.653 4.653 0 0 0-1.368-3.328 4.838 4.838 0 0 0-3.365-1.41 4.828 4.828 0 0 0-3.348 1.417 4.643 4.643 0 0 0-1.356 3.32 4.407 4.407 0 0 0 1.06 2.939 5.567 5.567 0 0 0-2.1 2.025 5.429 5.429 0 0 0-.767 2.79 5.23 5.23 0 0 0 .47 2.255c.322.708.799 1.34 1.396 1.848a6.51 6.51 0 0 0 4.223 1.484 8.969 8.969 0 0 0 4.36-1.224l.982 1.204h3.31l-2.289-2.764a6.527 6.527 0 0 0 1.964-4.508m13.209-8.485a7.086 7.086 0 0 1 4.91 1.926l.226.222 1.807-1.763-.236-.221a9.507 9.507 0 0 0-4.838-2.519 9.62 9.62 0 0 0-5.45.538 9.41 9.41 0 0 0-4.23 3.413 9.139 9.139 0 0 0-1.587 5.141 9.14 9.14 0 0 0 1.588 5.142 9.41 9.41 0 0 0 4.23 3.413 9.62 9.62 0 0 0 5.45.537 9.507 9.507 0 0 0 4.837-2.518l.236-.222-.226-.23-1.552-1.57-.216.211-.137.096a18.44 18.44 0 0 1-2.053 1.118 7.154 7.154 0 0 1-2.71.78 7.05 7.05 0 0 1-2.657-.513 6.944 6.944 0 0 1-2.253-1.471 6.736 6.736 0 0 1-1.501-2.193 6.63 6.63 0 0 1 0-5.179 6.736 6.736 0 0 1 1.5-2.192 7.013 7.013 0 0 1 4.91-1.985M48.12 37.496a6.994 6.994 0 0 1-2.659-.508 6.886 6.886 0 0 1-2.252-1.476 6.735 6.735 0 0 1-1.5-2.193 6.63 6.63 0 0 1 0-5.18 6.735 6.735 0 0 1 1.5-2.191 7.023 7.023 0 0 1 4.91-1.992c1.841 0 3.607.716 4.91 1.992a6.706 6.706 0 0 1 1.927 3.473 6.622 6.622 0 0 1-.391 3.936 6.774 6.774 0 0 1-2.574 3.044 6.972 6.972 0 0 1-3.872 1.104v-.01Zm0-16.018a9.568 9.568 0 0 0-5.22 1.603 9.293 9.293 0 0 0-3.437 4.173 9.09 9.09 0 0 0-.5 5.342 9.204 9.204 0 0 0 2.606 4.717 9.498 9.498 0 0 0 4.836 2.506c1.829.35 3.722.16 5.441-.545a9.398 9.398 0 0 0 4.22-3.413 9.129 9.129 0 0 0 1.58-5.136 9.131 9.131 0 0 0-.736-3.558 9.276 9.276 0 0 0-2.069-3.01 9.483 9.483 0 0 0-3.087-2 9.63 9.63 0 0 0-3.635-.688m15.644 3.246a.53.53 0 0 0 .375-.146.51.51 0 0 0 .155-.365.525.525 0 0 0-.158-.365.545.545 0 0 0-.372-.155h-.913v1.021l.913.01Zm1.11 1.589h-.57l-.805-1.088h-.648v1.088h-.59v-3.111h1.503c.275 0 .54.106.736.295.197.189.31.446.315.716-.006.216-.08.424-.212.597s-.315.3-.525.366l.796 1.137Zm-1.434.8a2.46 2.46 0 0 0 1.342-.411 2.39 2.39 0 0 0 .885-1.072c.18-.435.226-.912.13-1.372a2.366 2.366 0 0 0-.668-1.214 2.441 2.441 0 0 0-1.242-.645 2.47 2.47 0 0 0-1.4.138c-.441.18-.82.486-1.085.877a2.346 2.346 0 0 0 .31 3.008 2.437 2.437 0 0 0 1.728.69Zm0-5.327c.593.004 1.173.18 1.664.506.492.326.874.788 1.098 1.327a2.89 2.89 0 0 1 .163 1.701 2.931 2.931 0 0 1-.827 1.504c-.42.41-.956.69-1.539.801a3.06 3.06 0 0 1-1.733-.17 2.993 2.993 0 0 1-1.346-1.086 2.907 2.907 0 0 1-.505-1.636 2.938 2.938 0 0 1 .89-2.088c.281-.273.614-.49.98-.638a3.068 3.068 0 0 1 1.155-.221Z" />
  </g>
  <defs>
    <clipPath id="a">
      <path fill="#fff" d="M0 0h100v40H0z" />
    </clipPath>
  </defs>
</svg>